<svg width="582" height="621" viewBox="0 0 582 621" fill="none" xmlns="http://www.w3.org/2000/svg">
<path d="M807.718 619.819C782.324 571.613 754.425 552.153 719.089 527.337C706.565 518.59 692.346 508.648 677.125 496.51C655.623 479.516 619.67 451.116 621.559 415.356C624.718 356.399 686.258 312.662 745.755 270.352C808.142 226.037 872.648 180.181 865.982 118.025C858.622 49.2802 789.376 9.89807 722.364 -28.1738C663.522 -61.6216 602.715 -96.187 582.87 -150.867C571.58 -159.846 565.337 -169.633 564.412 -179.999C563.372 -191.174 568.458 -203.12 579.518 -215.643L580.057 -216.067L627.03 -240.845C643.33 -247.82 658.436 -252.713 673.079 -257.492C711.999 -270.169 745.639 -281.113 774.848 -323L778.008 -320.804C748.067 -277.876 713.848 -266.855 674.274 -253.869C659.708 -249.13 644.679 -244.236 628.649 -237.415L582.138 -212.869C572.003 -201.309 567.302 -190.403 568.227 -180.384C569.113 -170.982 574.971 -161.965 585.683 -153.603L586.145 -153.256L586.338 -152.717C605.605 -99.1155 665.873 -64.7814 724.291 -31.5648C792.111 6.96948 862.244 46.891 869.797 117.563C876.733 181.992 811.263 228.503 747.99 273.473C689.225 315.244 628.533 358.248 625.412 415.549C623.639 449.266 658.59 476.934 679.36 493.427C694.504 505.411 708.03 514.852 721.131 524.023C756.891 548.993 785.137 568.684 810.993 617.739L807.718 619.819Z" fill="#F8F6F6"/>
<path d="M788.143 620.436C762.748 572.73 734.734 552.731 699.282 527.414C686.296 518.127 672.886 508.571 657.935 496.587C635.161 478.321 600.789 450.692 602.484 415.665C605.374 356.63 666.991 312.778 726.565 270.352C788.952 225.96 853.458 180.066 846.946 117.871C839.702 48.9333 770.186 9.97507 702.905 -28.0198C644.024 -61.0822 582.986 -95.7632 563.102 -150.289C551.889 -159.268 545.723 -169.094 544.76 -179.498C543.719 -190.712 548.613 -202.619 559.595 -215.22L560.135 -215.643L607.339 -240.46C623.832 -247.434 639.13 -252.328 653.928 -257.068C693.04 -269.553 726.796 -280.188 755.812 -322.576L759.011 -320.38C729.224 -277.106 694.89 -266.085 654.968 -253.369C640.248 -248.667 625.065 -243.812 608.727 -236.953L561.985 -212.407C551.966 -200.846 547.38 -189.903 548.305 -179.845C549.191 -170.404 555.01 -161.349 565.645 -152.871L566.108 -152.524V-152.023C585.375 -98.3835 645.951 -64.2806 704.523 -31.3337C772.652 6.96939 843.054 46.5827 850.491 117.524C857.235 181.915 791.803 228.503 728.53 273.55C669.688 315.398 608.842 358.711 606.068 415.896C604.449 448.958 637.936 475.817 660.016 493.62C674.852 505.565 688.223 515.122 701.171 524.447C737.046 550.034 765.369 570.264 791.187 618.779L788.143 620.436Z" fill="#F8F6F6"/>
<path d="M763.21 620.435C738.818 574.194 712.499 552.962 679.167 525.988C667.607 516.701 656.046 507.145 642.868 495.584C622.714 477.743 588.92 447.802 590.423 414.662C593.004 356.398 652.733 312.238 710.496 269.581C771.11 224.804 833.805 178.485 827.37 116.946C820.203 48.4706 751.034 10.7455 684.138 -25.631C625.45 -57.653 564.682 -90.754 544.836 -144.779C533.623 -153.758 527.419 -163.545 526.456 -173.95C525.415 -185.125 530.309 -197.07 541.291 -209.632L541.792 -210.056L589.074 -235.913C605.335 -243.196 620.556 -248.475 635.315 -253.6C674.774 -267.28 708.839 -279.11 737.816 -321.305L740.976 -319.108C711.305 -275.911 676.662 -263.889 636.587 -249.747C621.944 -244.66 606.8 -239.419 590.808 -232.291L543.989 -206.627C534.008 -195.066 529.384 -184.123 530.348 -174.104C531.311 -164.085 537.053 -155.646 547.688 -147.13L548.112 -146.783L548.305 -146.243C567.572 -93.2972 627.762 -60.466 686.026 -28.6751C753.77 8.27927 823.863 46.5439 831.224 117.023C837.89 180.72 774.308 227.694 712.808 273.126C655.777 315.282 596.781 358.865 594.315 415.279C592.927 446.761 625.797 475.932 645.45 493.349C658.436 504.91 670.227 514.351 681.633 523.599C715.274 550.881 741.901 572.383 766.679 619.241L763.21 620.435Z" fill="#F8F6F6"/>
<path d="M733.539 620.359C721.208 594.464 694.62 568.646 666.49 541.286C624.487 500.479 581.059 458.245 583.448 412.428C586.415 355.551 642.791 311.159 697.317 268.194C755.119 222.762 814.616 175.711 807.718 115.289C800.011 47.8929 731.651 12.4028 665.526 -21.9313C607.378 -52.1037 547.265 -83.3165 527.188 -136.34C516.013 -145.164 509.848 -154.913 508.846 -165.241C507.805 -176.415 512.699 -188.361 523.759 -201.039L524.221 -201.463L571.618 -229.015C587.687 -236.722 602.87 -242.656 617.513 -248.282C657.396 -263.696 691.845 -276.952 720.708 -319.763L723.867 -317.605C694.35 -273.792 659.399 -260.305 618.9 -244.66C604.295 -239.034 589.228 -233.099 573.429 -225.393L526.456 -198.033C516.36 -186.473 511.736 -175.414 512.699 -165.356C513.586 -155.992 519.404 -147.052 530.001 -138.806L530.425 -138.459V-137.958C549.692 -86.0139 609.42 -55.0709 667.106 -25.1297C734.156 9.55121 803.479 45.6579 811.379 115.097C818.469 177.715 758.009 225.382 699.629 271.469C645.681 313.857 590.115 357.747 587.225 412.852C584.913 456.935 627.724 498.513 669.11 538.743C697.51 566.334 724.33 592.421 736.931 618.933L733.539 620.359Z" fill="#F8F6F6"/>
<path d="M700.208 620.204C690.459 594.887 669.38 568.414 646.722 540.4C612.388 497.665 576.898 453.505 580.597 409.614C585.183 355.242 636.626 310.62 686.374 267.461C742.711 218.6 795.927 172.474 788.182 113.324C779.55 47.4302 712.269 14.8687 647.185 -16.6524C589.73 -44.4742 530.348 -73.2593 510.041 -124.972C498.943 -133.643 492.777 -143.238 491.776 -153.488C490.658 -164.701 495.629 -176.84 506.842 -189.556L507.266 -189.903L554.779 -219.728C570.732 -228.09 585.799 -234.641 600.404 -240.961C640.788 -258.494 675.623 -273.599 704.447 -317.49L707.683 -315.371C678.32 -270.517 642.946 -255.18 602.022 -237.454C587.495 -231.134 572.466 -224.622 556.783 -216.376L509.578 -186.704C499.328 -174.874 494.627 -163.776 495.629 -153.719C496.515 -144.471 502.334 -135.685 512.815 -127.554L513.278 -127.246L513.47 -126.745C533.007 -76.1109 591.926 -47.5955 648.842 -20.0049C714.928 12.1328 783.095 45.0025 791.997 112.9C800.012 174.015 743.52 222.993 688.917 270.39C639.747 313.009 588.728 357.131 584.451 409.923C580.867 452.31 615.856 495.854 649.728 538.011C672.424 566.256 693.85 592.961 703.676 618.933L700.208 620.204Z" fill="#F8F6F6"/>
<path d="M664.216 620.012C657.395 594.464 642.29 567.413 626.298 538.782C601.636 494.621 576.204 448.958 580.789 406.262C586.338 355.127 632.271 310.273 676.663 266.883C728.568 216.365 777.584 168.351 768.875 111.282C758.933 47.3534 693.001 18.1059 629.188 -10.1398C572.35 -35.2257 513.894 -61.0822 493.316 -111.177C482.257 -119.616 476.13 -129.018 475.089 -139.153C473.933 -150.405 478.943 -162.659 490.503 -175.606L490.889 -175.915L538.556 -208.283C554.316 -217.416 569.383 -224.738 583.872 -231.789C624.795 -251.75 660.131 -268.936 688.724 -314.33L691.961 -312.249C662.79 -266.008 626.992 -248.513 585.567 -228.321C571.117 -221.269 556.127 -213.986 540.598 -205.201L493.239 -173.024C482.758 -161.002 477.825 -149.904 479.02 -139.692C479.945 -130.56 485.725 -121.928 496.168 -114.067L496.592 -113.759L496.784 -113.258C516.591 -64.1649 574.585 -38.4626 630.691 -13.6465C695.429 15.0616 762.363 44.6945 772.613 110.704C781.784 169.777 729.763 220.565 679.476 269.696C635.546 312.585 590.153 356.938 584.72 406.725C580.211 448.226 605.413 493.311 629.766 536.932C645.874 565.794 661.133 593.077 668.069 619.049L664.216 620.012Z" fill="#F8F6F6"/>
<path d="M626.607 619.78C623.139 594.155 614.7 566.988 605.798 538.203C591.618 492.424 576.936 445.104 582.87 402.601C589.421 355.82 629.112 311.043 667.338 267.731C712.615 216.557 759.396 163.688 749.262 108.969C737.701 47.3145 673.272 21.6506 610.923 -3.12695C555.049 -25.2842 497.324 -48.2121 476.593 -97.0351C454.127 -149.904 478.134 -168.324 522.526 -196.377C537.939 -206.164 552.968 -214.295 567.418 -222.156C608.92 -244.737 644.718 -264.236 673.156 -311.324L676.47 -309.321C647.492 -261.461 611.232 -241.654 569.268 -218.842C554.856 -211.135 539.982 -202.85 524.568 -193.14C477.171 -163.199 459.869 -146.243 480.138 -98.5765C500.407 -50.9095 557.207 -28.5981 612.311 -6.74915C675.661 18.4138 741.17 44.4244 753.038 108.237C763.519 164.767 716.084 218.368 670.228 270.081C632.31 313.009 593.159 357.362 586.685 402.986C580.867 444.642 595.394 491.615 609.459 536.932C618.438 565.832 626.915 593.153 630.422 619.125L626.607 619.78Z" fill="#F8F6F6"/>
<path d="M592.157 619.511H588.303C588.303 595.042 586.569 569.84 584.72 543.098C581.367 494.467 577.899 444.141 585.799 398.786C592.966 357.401 625.874 313.279 657.704 270.621C698.781 215.517 741.246 158.563 729.801 106.542C716.738 47.1222 653.735 25.2346 592.85 4.04074C538.016 -14.9952 481.332 -34.7248 460.177 -81.7752C437.249 -132.718 462.874 -153.719 506.611 -183.814C522.024 -194.334 536.822 -203.312 551.195 -211.983C593.236 -237.338 629.574 -259.187 657.896 -308.087L661.21 -306.161C632.387 -256.413 595.702 -234.294 553.314 -208.707C538.979 -200.037 524.144 -191.097 508.923 -180.616C465.572 -150.829 442.104 -131.6 463.799 -83.3551C484.261 -37.8075 540.174 -18.3862 594.199 0.418579C656.124 21.9593 720.168 44.1935 733.693 105.733C745.523 159.45 702.481 217.136 660.902 272.933C629.343 315.321 596.704 358.98 589.691 399.441C581.984 444.334 585.336 494.429 588.689 542.866C590.423 569.609 592.157 594.926 592.157 619.511Z" fill="#F8F6F6"/>
<path d="M554.124 619.781L550.27 619.28C557.63 562.48 568.266 504.833 578.516 449.074C581.83 431.04 585.144 413.044 588.342 395.126C594.97 357.901 620.827 316.785 648.186 273.242C685.025 214.631 723.135 154.055 710.342 104.23C695.699 47.1221 634.159 28.8183 574.701 11.1311C520.753 -4.86066 465.263 -21.3919 443.684 -66.5927C419.022 -118.152 450.62 -141.619 490.619 -171.329C505.802 -182.62 520.599 -192.369 534.933 -201.81C577.514 -229.901 614.276 -254.178 642.521 -304.812L645.874 -302.962C617.243 -251.519 580.057 -227.011 537.091 -198.65C522.795 -189.209 508.037 -179.383 492.97 -168.285C448.848 -135.531 424.995 -114.722 447.191 -68.3267C468.038 -24.6673 522.834 -8.36731 575.818 7.39325C636.356 25.3888 699.128 44.0008 714.118 103.228C727.297 154.633 688.763 215.98 651.5 275.245C624.333 318.481 598.669 359.289 592.157 395.781C588.959 413.699 585.645 431.733 582.331 449.729C572.081 505.372 561.484 563.174 554.124 619.781Z" fill="#F8F6F6"/>
<path d="M517.323 619.973L513.47 619.049C522.449 582.403 536.321 547.375 549.731 513.465C565.145 474.468 581.098 434.161 589.421 391.581C599.98 337.632 621.019 293.511 643.369 246.653C646.683 239.678 650.036 232.626 653.427 225.421C656.394 219.101 659.862 212.319 663.523 205.113C679.861 173.245 700.169 133.555 690.921 101.956C674.852 47.0065 614.7 32.0552 556.513 17.6048C503.721 4.50317 449.156 -9.02234 427.076 -52.4891C401.875 -102.044 433.935 -127.515 474.473 -159.73C489.502 -171.676 504.26 -182.157 518.518 -192.33C561.599 -223.158 598.785 -249.554 626.992 -301.845L630.383 -300.034C601.752 -246.933 562.409 -218.88 520.753 -189.17C506.534 -179.036 491.814 -168.593 476.862 -156.686C437.673 -125.589 406.73 -101.004 430.621 -54.2231C451.892 -12.3363 505.609 0.996552 557.553 13.867C616.781 28.5871 678.05 43.7697 694.736 100.878C704.408 133.94 683.715 174.362 667.068 206.885C663.407 214.014 659.939 220.796 657.01 227.077C653.619 234.283 650.267 241.335 646.953 248.31C623.832 296.94 603.91 338.981 593.467 392.351C585.028 435.24 568.998 475.74 553.507 514.89C540.059 548.646 526.109 583.558 517.323 619.973Z" fill="#F8F6F6"/>
<path d="M482.681 620.127L479.058 618.894C491.428 582.209 511.196 548.916 530.309 516.701C554.008 476.857 578.477 435.779 588.111 388.574C600.75 327.343 618.745 279.33 640.941 222.877C643.523 216.288 646.606 209.197 649.881 201.683C663.792 169.777 681.132 130.086 671.345 99.8753C654.12 46.6979 595.124 34.7522 538.055 23.1919C486.226 12.6721 432.586 1.80539 410.082 -40.0429C384.38 -87.8254 417.519 -115.686 455.899 -147.939L457.826 -149.519C472.739 -162.043 487.42 -173.218 501.601 -184.007C545.106 -217.07 582.523 -245.662 610.846 -299.302L614.275 -297.529C585.721 -243.08 545.993 -212.754 503.913 -180.924C489.771 -170.173 475.128 -159.037 460.331 -146.59L458.404 -144.972C419.87 -112.526 389.235 -86.9006 413.473 -41.8925C435.129 -1.62415 487.844 9.08838 538.825 19.4156C596.974 31.1685 657.087 43.3454 675.006 98.6807C685.256 130.279 667.607 170.74 653.426 203.224C650.151 210.7 647.107 217.752 644.525 224.264C622.406 280.486 604.488 328.307 591.887 389.268C582.061 436.974 557.399 478.475 533.546 518.589C514.549 550.727 494.935 583.828 482.681 620.127Z" fill="#F8F6F6"/>
<path d="M451.237 620.243L447.692 618.817C462.72 581.131 487.536 548.454 511.505 516.856C541.6 477.204 572.736 436.242 583.217 386.147C594.61 330.288 609.253 275.142 627.069 220.989C629.381 214.014 632.194 206.462 635.2 198.485C647.068 166.733 661.866 127.196 651.847 98.2957C633.851 46.3128 575.78 36.6407 519.597 27.6622C468.5 19.3388 415.554 10.7071 392.742 -29.9081C366.616 -76.1493 400.796 -106.168 436.979 -137.804L440.833 -141.157C455.591 -154.143 470.234 -165.857 484.377 -177.148C526.379 -210.75 566.069 -242.656 594.238 -297.105L597.667 -295.333C569.114 -239.959 529.115 -207.975 486.766 -174.142C472.662 -162.851 458.058 -151.021 443.376 -138.267L439.523 -134.914C403.069 -102.969 371.587 -75.3786 396.171 -31.7577C418.136 7.23904 470.042 15.7166 520.252 23.8859C577.553 33.2497 636.78 42.9218 655.507 97.1011C665.989 127.351 650.922 167.58 638.861 199.911C635.855 207.849 633.042 215.324 630.768 222.299C612.986 276.309 598.382 331.315 587.032 387.033C576.204 437.86 544.953 479.207 514.549 519.168C490.735 550.573 466.073 583.057 451.237 620.243Z" fill="#F8F6F6"/>
<path d="M423.993 620.281L420.448 618.779C437.018 579.435 465.649 546.912 493.316 515.468C528.999 474.891 562.678 436.55 573.506 384.451L577.745 363.951C587.764 315.128 597.243 269.041 611.154 219.64C613.274 212.126 615.933 203.995 618.861 195.441C629.612 162.532 641.982 125.231 632.271 96.8697C614.738 45.1952 556.936 37.5653 500.869 30.1667C450.235 23.5003 397.828 16.6027 374.785 -23.0106C348.389 -68.3655 382.068 -98.7306 417.712 -130.907L422.914 -135.608C437.596 -148.902 452.2 -161.002 466.304 -172.716C508.691 -207.667 548.42 -240.73 576.627 -295.834L580.057 -294.061C551.465 -238.34 511.312 -204.931 468.77 -169.711C454.666 -158.15 440.1 -145.974 425.496 -132.718L420.294 -128.017C385.844 -96.958 353.283 -67.5948 378.099 -24.9373C400.217 13.019 451.661 19.8011 501.408 26.3519C558.516 34.0587 617.589 41.7656 635.855 95.7137C645.835 125.27 633.389 163.226 622.445 196.712C619.632 205.267 616.973 213.32 614.738 220.758C600.904 270.004 591.617 316.053 581.406 364.799L577.167 385.338C566.185 438.322 530.54 478.822 496.245 517.973C468.731 549.224 440.332 581.516 423.993 620.281Z" fill="#F8F6F6"/>
<path d="M401.836 620.243L398.291 618.817C414.976 576.892 445.842 544.253 475.745 512.655C512.622 473.62 547.496 436.781 557.939 384.028C559.84 374.522 561.689 365.082 563.487 355.705C572.582 309.464 581.175 265.419 592.735 219.332C594.777 211.201 597.513 202.3 600.442 192.82C610.422 160.259 621.751 123.458 612.426 96.4844C594.469 44.5787 537.13 37.9893 481.718 31.5927C431.43 25.774 379.447 19.8011 356.134 -19.7736C329.584 -64.9359 364.265 -96.7267 397.944 -127.516L404.109 -133.142C418.714 -146.629 433.318 -158.96 447.422 -170.867C489.81 -206.627 529.654 -240.229 557.977 -295.294L561.407 -293.521C532.737 -237.916 492.507 -203.929 449.888 -167.938C435.823 -156.031 421.257 -143.739 406.73 -130.329L400.564 -124.664C366.577 -93.5669 334.516 -64.2037 359.41 -21.9315C381.76 15.9862 432.625 21.882 482.103 27.5465C538.748 34.0974 597.282 40.8409 616.01 95.0587C625.759 123.266 614.276 160.837 604.103 193.976C601.212 203.379 598.515 212.242 596.396 220.257C584.835 266.267 576.281 310.08 567.187 356.437C565.363 365.814 563.513 375.255 561.638 384.76C550.964 438.708 514.086 477.589 478.442 515.314C449.04 546.642 418.213 579.011 401.836 620.243Z" fill="#F8F6F6"/>
<path d="M383.956 616.12L380.372 614.694C397.096 572.307 428.348 539.707 458.558 508.224C495.513 469.69 530.425 433.313 541.022 380.406C544.606 362.41 548.074 344.222 551.388 326.65C558.054 291.584 564.913 255.323 573.314 219.332C575.24 210.97 577.938 201.838 580.751 192.165C589.999 160.49 600.442 124.653 591.348 98.2187C573.776 47.0836 517.632 39.2227 463.337 31.5929C414.167 24.6952 363.147 17.5664 340.258 -21.4689C313.823 -66.2843 346.924 -96.765 381.991 -129.057L387.386 -134.297C401.528 -147.399 415.631 -159.422 429.272 -171.059C470.928 -206.626 510.194 -240.19 538.671 -294.6L542.062 -292.789C513.47 -237.608 473.818 -203.659 431.893 -167.976C418.29 -156.416 404.225 -144.355 390.121 -131.292L384.611 -126.205C350.701 -95.0309 318.717 -65.5907 343.611 -23.4341C365.691 13.9827 415.631 20.9959 463.876 27.778C519.327 35.4848 576.628 43.6156 594.893 96.9471C604.372 124.538 593.737 161.03 584.334 193.283C581.521 202.955 578.863 212.049 576.936 220.257C568.574 256.171 561.522 292.355 555.048 327.382C551.734 344.993 548.305 363.181 544.683 381.33C533.855 435.279 496.939 473.813 461.217 511.037C431.392 542.096 400.41 574.387 383.956 616.12Z" fill="#F8F6F6"/>
<path d="M368.504 604.752L364.958 603.326C381.798 560.939 413.55 528.955 444.223 497.974C481.756 460.094 517.208 424.296 527.612 371.388C530.964 354.163 536.86 331.852 543.025 308.23C561.676 237.559 584.874 149.585 568.921 101.802C552.197 51.7075 498.441 41.65 446.42 31.9394C399.37 23.1535 350.701 14.0594 328.621 -24.5134C302.88 -69.5215 335.518 -99.8866 370.045 -132.063L374.13 -135.916C387.655 -148.555 401.104 -160.154 414.013 -171.329C454.204 -206.01 492.16 -238.764 519.635 -292.057L523.065 -290.285C495.243 -236.337 457.017 -203.351 416.556 -168.401C403.608 -157.264 390.237 -145.704 376.788 -133.103L372.665 -129.25C337.984 -96.8424 307.735 -68.828 331.973 -26.4402C353.167 10.5528 400.949 19.4927 447.152 28.1244C500.214 38.0277 555.048 48.2779 572.581 100.53C588.881 149.431 565.53 238.021 546.763 309.194C540.521 332.738 534.664 354.973 531.35 372.082C520.753 426.03 483.22 464.025 446.921 500.671C416.556 531.421 385.073 563.174 368.504 604.752Z" fill="#F8F6F6"/>
<path d="M355.055 587.489L351.51 585.986C369.197 544.523 400.911 512.771 431.546 481.943C471.737 441.752 509.693 403.757 518.017 346.033C520.56 328.538 525.724 305.687 531.119 281.526C544.567 221.605 561.329 147.042 549.653 104.268C536.629 56.6014 483.105 41.7272 431.353 27.1997C392.511 16.3716 352.358 5.19659 330.085 -19.9278C292.707 -62.0843 317.176 -92.6805 355.787 -131.369C371.586 -147.168 387.385 -161.118 402.684 -174.643C439.754 -207.32 474.781 -238.225 500.715 -288.473L504.144 -286.701C477.864 -235.797 442.49 -204.7 405.227 -171.753C390.006 -158.266 374.399 -144.355 358.485 -128.633C320.22 -90.0987 297.755 -62.1999 332.975 -22.471C354.477 1.80563 394.09 12.8264 432.394 23.5004C485.186 38.182 539.789 53.3645 553.353 103.151C565.298 146.849 548.42 221.914 534.856 282.258C529.462 306.342 524.336 329.116 521.832 346.495C513.316 405.453 473.163 445.683 434.282 484.564C403.878 515.237 372.434 546.72 355.055 587.489Z" fill="#F8F6F6"/>
<path d="M343.11 565.717L339.564 564.176C357.252 524.254 389.659 493.619 421.103 463.987C463.028 424.412 502.603 386.918 509.347 329.849C510.85 316.785 513.2 300.909 515.898 284.108C524.76 226.307 535.858 154.055 524.799 110.974C512.776 64.0002 464.107 46.0047 416.903 28.5872C381.259 15.3699 344.42 1.61313 323.611 -24.4361C288.93 -68.0184 312.86 -98.6917 347.657 -134.259C362.415 -149.364 377.097 -162.505 391.316 -175.259C425.65 -206.087 458.058 -235.18 481.679 -283.464L485.147 -281.768C461.294 -232.868 428.617 -203.659 394.014 -172.446C379.833 -159.73 365.228 -146.59 350.547 -131.6C317.099 -97.4201 294.094 -67.9799 326.771 -26.8637C346.886 -1.50815 383.224 11.9019 418.367 24.9265C466.381 42.6908 516.013 61.0331 528.537 109.972C539.75 153.824 528.537 226.345 519.674 284.648C517.131 301.41 514.703 317.286 513.162 330.272C506.264 388.845 464.454 428.304 423.762 466.838C392.665 496.163 360.412 526.528 343.11 565.717Z" fill="#F8F6F6"/>
<path d="M332.165 540.824L328.736 539.167C347.579 500.285 380.179 471.192 411.739 443.062C451.468 407.649 488.808 374.163 500.368 323.22C510.425 278.328 509.886 165.229 496.052 119.528C482.218 73.826 440.485 53.4799 400.063 33.7888C363.995 16.1786 326.848 -2.00952 308.544 -37.9621C290.24 -73.9146 312.898 -106.322 334.362 -130.984C350.565 -149.244 367.929 -166.44 386.345 -182.466C415.708 -208.939 441.063 -231.828 462.951 -278.108L466.419 -276.49C444.223 -229.478 418.598 -206.357 388.926 -179.576C370.626 -163.68 353.378 -146.611 337.291 -128.479C316.636 -104.703 294.903 -73.1053 312.012 -39.8502C329.622 -5.16934 366.307 12.8647 401.797 30.2052C442.952 50.2816 485.532 71.0516 499.79 118.295C513.739 164.536 514.279 278.636 504.183 323.952C492.622 376.128 454.55 409.961 414.321 445.836C383.031 473.851 350.7 502.675 332.165 540.824Z" fill="#F8F6F6"/>
<path d="M321.877 514.197L318.447 512.385C343.88 464.834 367.039 441.791 409.311 408.112L421.565 398.439C462.257 366.456 489.116 345.339 494.588 292.932C499.019 250.545 484.684 170.124 473.124 126.503C460.909 80.6083 425.611 57.5648 388.348 33.134C360.604 14.9843 331.934 -3.74332 314.093 -32.6441C284.306 -80.812 313.515 -113.296 344.458 -147.669L346.77 -150.251C358.33 -163.121 368.734 -173.371 378.792 -183.506C404.571 -209.208 425.033 -229.516 444.3 -272.135L447.807 -270.555C428.231 -227.088 407.654 -206.549 381.566 -180.577C371.548 -170.597 361.182 -160.27 349.737 -147.515L347.386 -144.895C316.135 -110.214 289.161 -80.1954 317.445 -34.4552C334.824 -6.3251 363.147 12.2099 390.661 30.0898C426.998 53.827 464.569 78.4119 477.132 125.732C488.692 169.623 503.219 250.699 498.749 293.51C493.085 347.459 465.687 369.076 424.224 401.638L412.009 411.31C369.852 444.449 346.963 467.262 321.877 514.197Z" fill="#F8F6F6"/>
<path d="M311.666 487.146L308.313 485.257C334.67 438.4 357.367 417.052 401.528 383.989C406.498 380.136 411.508 376.629 416.402 373.084C454.011 345.686 486.496 322.064 487.729 273.665C488.422 247.231 474.897 212.01 462.99 180.682C456.593 163.958 450.582 148.198 446.96 134.711C435.091 90.5887 405.766 64.1542 374.669 36.2168C350.778 14.7146 326.077 -7.51968 310.509 -38.4242C282.187 -94.5687 326.54 -143.507 369.39 -190.827C392.934 -216.8 415.169 -241.346 425.265 -266.432L428.848 -265.006C418.483 -239.265 396.056 -214.488 372.242 -188.246C330.239 -142.004 286.811 -93.9136 313.939 -40.1582C329.16 -9.90878 353.629 12.0943 377.251 33.3267C407.385 60.3008 438.52 88.4694 450.466 133.709C454.05 147.003 460.023 162.686 466.381 179.295C478.442 210.816 492.083 246.576 491.39 273.781C490.118 323.876 456.901 348.229 418.483 376.205C413.589 379.75 408.618 383.334 403.647 387.072C360.142 419.787 337.715 440.904 311.666 487.146Z" fill="#F8F6F6"/>
<path d="M301.145 461.135L297.87 459.092C328.929 408.998 355.98 388.189 401.142 355.82C404.995 353.007 409.35 350.04 413.935 346.919C443.298 326.881 483.49 299.483 483.875 263.068C484.106 240.294 466.496 214.515 449.464 189.583C437.441 171.973 426.074 155.365 421.026 140.144C409.465 105.232 386.345 74.9436 364.149 45.696C340.181 14.2135 315.403 -18.348 305.461 -56.3429C291.435 -110.291 322.763 -146.899 355.98 -185.818C375.632 -208.939 395.978 -232.792 406.421 -260.768L410.043 -259.419C399.369 -230.826 378.792 -206.665 358.908 -183.314C326.385 -145.165 295.673 -109.135 309.199 -57.3062C318.948 -20.0821 342.377 10.7454 367.232 43.3454C389.697 72.8627 412.895 103.42 424.686 138.911C429.58 153.631 440.755 170.046 452.624 187.387C470.003 212.819 487.96 239.138 487.728 263.107C487.305 301.641 446.15 329.617 416.132 350.079C411.546 353.2 407.23 356.167 403.377 358.942C358.638 391.002 331.819 411.579 301.145 461.135Z" fill="#F8F6F6"/>
<path d="M289.932 437.205L286.426 435.625C297.373 411.041 313.205 388.939 332.958 370.663C352.712 352.386 375.975 338.317 401.335 329.309C448 312.816 472.623 280.987 474.55 234.63C469.772 215.787 454.05 204.843 437.403 193.206C420.756 181.568 404.225 170.085 395.747 149.932V149.315C393.297 109.35 378.226 71.1928 352.705 40.3401C325.541 6.23306 305.73 -33.1268 294.518 -75.263C289.855 -120.541 316.752 -153.642 342.763 -185.664C360.411 -207.282 378.561 -229.593 387.385 -255.642L391.239 -254.371C381.991 -227.666 363.687 -205.124 345.961 -183.313C319.257 -150.443 294.017 -119.423 298.487 -76.0336C309.575 -34.5033 329.122 4.28915 355.903 37.9124C381.762 69.3322 397.029 108.121 399.524 148.737C407.616 167.696 423.916 179.064 439.677 190.046C457.017 202.146 473.394 213.552 478.442 233.975V234.245V234.515C476.477 282.76 450.967 315.86 402.607 332.931C377.746 341.781 354.941 355.586 335.573 373.51C316.205 391.434 300.678 413.103 289.932 437.205Z" fill="#F8F6F6"/>
<path d="M277.37 417.321L273.902 415.664C297.793 365.3 337.137 330.427 390.815 311.969C438.058 296.863 463.028 265.727 465.071 219.486C458.366 200.604 441.334 195.826 423.299 190.74C404.418 185.422 383.031 179.372 371.509 156.059L371.278 155.288C370.048 114.839 358.078 75.4453 336.597 41.1493C313.696 3.62462 297.562 -37.6298 288.93 -80.7347C285.77 -123.97 307.08 -152.717 329.661 -183.159C344.882 -203.698 360.488 -224.969 368.581 -251.249L372.434 -250.132C364.303 -223.158 348.35 -201.694 332.898 -180.77C310.779 -150.944 289.855 -122.737 292.899 -81.1972C301.432 -38.6664 317.329 2.04683 339.873 39.107C361.668 73.8336 373.836 113.731 375.132 154.71C385.96 176.328 405.458 181.684 424.34 187.117C443.222 192.551 461.564 197.637 468.847 218.677V219.024V219.409C466.843 267.539 440.987 299.907 391.971 315.745C339.41 333.702 300.837 367.92 277.37 417.321Z" fill="#F8F6F6"/>
<path d="M263.035 402.563L259.644 400.79C287.273 348.075 330.547 311.93 388.195 293.434C439.021 277.519 458.944 247.192 449.117 200.951C428.98 190.299 405.59 187.55 383.532 193.244H383.224H382.915C369.852 192.319 360.488 188.389 355.055 181.491C349.622 174.594 348.35 165.885 350.238 154.517C347.208 124.485 340.104 95.0057 329.121 66.8903C309.671 23.25 293.907 -21.9415 281.994 -68.2111C275.212 -118.306 294.672 -148.324 315.288 -180.192C328.235 -200.191 341.645 -220.923 349.545 -247.897L353.398 -246.818C345.306 -219.304 331.78 -198.342 318.717 -178.072C298.487 -146.821 279.412 -117.304 285.963 -68.9433C297.819 -22.9361 313.506 21.9978 332.859 65.3874C344.025 93.9457 351.246 123.893 354.323 154.402V154.71C352.55 165.23 353.899 173.399 358.176 179.025C362.454 184.651 371.201 188.427 382.992 189.314C406.21 183.497 430.766 186.633 451.776 198.1L452.547 198.523V199.371C463.182 247.693 441.834 280.563 389.196 297.094C332.705 315.282 290.202 350.773 263.035 402.563Z" fill="#F8F6F6"/>
<path d="M246.543 394.278L243.152 392.505C270.935 339.636 314.517 303.877 372.743 286.459C423.916 271.045 444.108 240.834 434.397 194.323C411.78 185.273 386.593 185.026 363.803 193.63H363.225C349.275 194.092 339.333 191.009 333.592 184.42C327.85 177.831 326.54 169.006 328.544 157.138C325.146 126.852 318.783 96.9731 309.546 67.9308C293.074 22.498 279.521 -23.9405 268.97 -71.101C263.267 -119.885 280.8 -149.21 299.335 -180.23C310.895 -199.767 323.033 -219.921 330.47 -246.355L334.324 -245.315C326.617 -218.341 314.517 -197.995 302.764 -178.265C284.537 -147.823 267.351 -119.038 272.9 -71.7176C283.429 -24.7737 296.917 21.4572 313.284 66.6977C322.639 96.0917 329.092 126.331 332.551 156.984V157.523C330.663 168.428 332.05 176.79 336.636 181.877C341.221 186.963 350.393 190.162 362.955 189.584C386.887 180.632 413.32 181.072 436.941 190.817L437.904 191.202L438.135 192.204C448.694 240.911 427.153 273.743 374.014 289.811C316.637 307.345 273.825 342.372 246.543 394.278Z" fill="#F8F6F6"/>
<path d="M228.162 393.392L224.771 391.619C252.4 338.981 295.751 303.491 353.591 286.151C404.225 270.737 424.571 240.372 415.67 193.899C392.578 185.016 367.011 185.016 343.919 193.899H343.341C329.353 194.477 319.334 191.472 313.477 184.921C307.62 178.37 306.155 169.507 308.005 157.6C303.932 127.39 297.686 97.5124 289.316 68.2004C274.904 22.5757 262.342 -24.282 252.323 -71.1012C246.889 -119.616 263.883 -149.981 281.763 -182.157C292.476 -201.424 303.535 -221.077 310.895 -246.124L314.748 -245.007C307.042 -219.574 296.098 -199.613 285.308 -180.269C267.659 -148.671 251.013 -118.845 256.253 -71.7178C266.349 -25.2454 278.757 21.5353 293.169 67.0058C301.609 96.6098 307.907 126.783 312.012 157.292V157.831C310.278 168.775 311.781 177.098 316.482 182.262C321.184 187.426 330.393 190.47 343.033 189.969C367.29 180.749 394.129 180.997 418.213 190.662L419.176 191.048L419.408 192.05C429.118 240.757 407.423 273.627 354.863 289.773C297.87 306.882 255.29 341.756 228.162 393.392Z" fill="#F8F6F6"/>
<path d="M212.902 396.706L209.472 394.933C221.845 370.145 239.172 348.159 260.382 330.336C281.592 312.513 306.234 299.232 332.782 291.314C381.22 275.322 400.757 245.535 392.51 200.219C370.652 189.627 345.738 187.155 322.224 193.244H321.954H321.877C308.351 192.782 298.756 189.044 292.784 182.185C286.811 175.326 285.385 166.771 286.926 154.864C282.264 125.424 276.484 95.714 269.817 66.6205C257.949 21.9978 247.467 -23.6654 238.681 -69.0203C233.942 -116.456 249.163 -149.942 265.232 -185.818C274.821 -205.853 282.822 -226.609 289.161 -247.897L293.015 -246.856C286.654 -225.374 278.588 -204.435 268.892 -184.238C253.016 -149.056 238.065 -115.801 242.65 -69.5983C251.398 -24.4746 261.918 21.1115 273.709 65.6957C280.453 95.0203 286.233 124.923 290.934 154.556V155.095C289.508 165.808 291.165 174.093 295.866 179.68C300.568 185.268 309.662 188.928 321.877 189.391C346.419 183.134 372.391 185.868 395.092 197.098L395.979 197.522V198.485C404.996 245.882 384.11 278.328 333.861 294.821C307.797 302.615 283.612 315.681 262.805 333.207C241.998 350.732 225.013 372.345 212.902 396.706Z" fill="#F8F6F6"/>
<path d="M201.149 402.909L197.681 401.252C208.522 377.499 224.222 356.283 243.769 338.973C263.316 321.663 286.275 308.643 311.164 300.755C356.596 283.954 374.553 254.514 366.076 210.738C346.056 197.459 322.103 191.41 298.178 193.591H297.677C272.669 189.275 261.378 175.094 264.114 151.55C240.762 103.729 233.942 11.4775 229.433 -49.6379C229.048 -55.2254 228.624 -60.5432 228.239 -65.5141C224.693 -111.755 236.331 -150.29 248.623 -191.136C254.365 -210.21 260.184 -229.902 264.692 -250.672L268.546 -249.901C264.114 -228.977 258.18 -209.17 252.4 -190.018C240.184 -149.48 228.662 -111.216 232.169 -65.8224C232.554 -60.8514 232.94 -55.5337 233.364 -49.9077C237.911 11.1307 244.731 103.343 268.045 150.471L268.276 150.972V151.55C265.578 173.283 275.443 185.807 298.371 190.084C323.346 187.867 348.325 194.302 369.12 208.311L369.814 208.735V209.505C378.985 255.246 359.718 287.268 312.59 304.762C288.187 312.425 265.662 325.119 246.467 342.024C227.272 358.929 211.834 379.67 201.149 402.909Z" fill="#F8F6F6"/>
<path d="M192.209 411.387L188.625 409.923C197.336 387.507 210.845 367.268 228.206 350.626C245.567 333.984 266.359 321.342 289.123 313.587C330.701 295.553 346.5 266.383 337.252 224.496C319.266 207.889 296.535 197.325 272.245 194.285H271.859C248.469 185.884 237.911 169.854 240.454 146.656C223.499 103.768 222.574 36.795 221.803 -17.076C221.572 -32.8751 221.379 -47.9035 220.801 -61.0052C218.644 -109.713 225.387 -158.112 231.899 -204.892C234.173 -221.192 236.523 -238.032 238.489 -254.717L242.342 -254.255C240.377 -237.569 238.026 -220.691 235.753 -204.16C229.395 -157.803 222.497 -109.558 224.655 -61.0822C225.233 -47.8649 225.426 -32.9137 225.657 -17.0375C226.427 36.6794 227.352 103.536 244.192 145.77V146.232V146.695C241.687 168.39 251.051 182.763 272.861 190.663C298.061 193.844 321.617 204.887 340.181 222.222L340.643 222.646V223.224C350.508 266.883 333.553 298.559 290.317 317.325C268.101 324.913 247.81 337.263 230.864 353.51C213.918 369.757 200.726 389.51 192.209 411.387Z" fill="#F8F6F6"/>
<path d="M185.35 421.483L181.497 420.404C186.715 400.658 196.584 382.448 210.28 367.297C223.977 352.146 241.101 340.495 260.222 333.317C295.365 316.708 312.205 288.771 310.317 250.429C305.076 225.729 285.886 213.706 265.578 200.951C244.423 187.695 222.536 173.977 214.713 144.575C203.384 102.188 207.507 48.9331 211.515 -2.54871C213.442 -27.018 215.368 -50.1386 215.368 -70.9471C215.368 -100.387 214.289 -130.213 213.249 -159.037C212.054 -191.945 210.821 -225.971 211.207 -259.573H215.06C214.675 -226.048 215.908 -192.061 217.102 -159.383C218.143 -130.483 219.222 -100.657 219.222 -71.1398C219.222 -50.1772 217.372 -26.9795 215.368 -2.43311C211.515 48.7019 207.276 101.61 218.412 143.381C225.85 171.28 247.12 184.612 267.621 197.329C288.121 210.045 308.544 222.993 314.132 249.581C316.29 289.965 298.718 318.943 261.918 336.515C243.283 343.511 226.602 354.88 213.278 369.667C199.953 384.453 190.375 402.224 185.35 421.483Z" fill="#F8F6F6"/>
<path d="M179.801 432.696L175.947 432.003C182.883 393.892 204 366.263 238.758 349.963C268.892 332.083 282.186 305.071 278.025 269.812C273.478 242.067 254.904 225.151 235.367 207.271C215.06 188.697 194.058 169.507 189.126 137.061C183.115 98.5267 191.631 57.4492 199.916 17.6046C205.58 -9.75471 211.476 -38.0389 212.285 -64.5891C213.518 -105.012 205.079 -144.548 196.871 -182.774C190.538 -209.887 185.777 -237.343 182.614 -265.006L186.467 -265.353C189.6 -237.844 194.334 -210.541 200.648 -183.583C208.856 -145.049 217.333 -105.358 216.061 -64.4734C215.214 -37.4994 209.318 -9.13815 203.615 18.4139C195.407 57.873 186.93 98.6424 192.864 136.406C197.719 167.542 218.219 186.269 238.065 204.381C257.332 221.952 277.138 240.102 281.917 269.234C286.271 306.265 272.36 334.511 240.646 353.316C224.632 360.34 210.655 371.303 200.016 385.182C189.378 399.061 182.423 415.407 179.801 432.696Z" fill="#F8F6F6"/>
<path d="M174.715 444.873L171.054 443.679C178.298 421.059 193.327 401.753 207.893 383.103C230.204 354.433 251.282 327.344 245.386 289.965C240.685 260.024 222.69 237.481 205.272 215.671C185.62 191.048 165.312 165.576 163.231 129.238C161.15 92.9006 174.175 58.9519 186.737 26.0821C197.103 -0.891937 207.815 -28.9834 209.858 -57.9227C213.133 -102.623 196.294 -146.552 179.994 -188.747C169.744 -215.451 159.108 -243.08 153.675 -270.594L157.528 -271.326C162.885 -244.352 173.443 -216.684 183.655 -190.134C200.109 -147.399 217.102 -103.201 213.75 -57.6144C211.592 -28.1357 200.802 0.187042 190.321 27.4693C177.913 59.9538 165.042 93.5943 167.2 129.007C169.358 164.42 189.165 189.121 208.432 213.243C226.158 235.439 244.5 258.406 249.355 289.349C255.521 328.422 232.94 357.4 211.091 385.453C196.563 403.873 181.766 422.909 174.715 444.873Z" fill="#F8F6F6"/>
<path d="M169.666 456.395L165.813 455.74C169.859 433.236 180.032 414.316 189.82 396.051C202.266 372.93 214.02 351.042 213.827 322.835C213.596 286.497 195.061 255.516 177.142 225.536C158.299 194.054 138.8 161.492 140.034 122.341C141.113 87.1979 157.258 58.3357 172.826 30.3983C185.234 8.08694 198.105 -14.9181 203.268 -41.0444C213.48 -91.9097 187.007 -143.199 161.536 -192.715C147.355 -220.268 132.673 -248.744 125.044 -276.219L128.897 -277.26C136.373 -250.286 150.322 -223.119 165.081 -194.45C190.899 -144.355 217.642 -92.5647 207.237 -40.3122C201.92 -13.6079 188.895 9.78244 176.41 32.2094C160.341 61.0331 145.197 88.2383 144.118 122.418C142.924 160.413 162.114 192.512 180.687 223.532C198.875 253.936 217.68 285.38 217.911 322.758C218.104 351.929 205.58 375.242 193.442 397.823C183.577 415.896 173.597 434.508 169.666 456.395Z" fill="#F8F6F6"/>
<path d="M160.033 467.3C158.337 443.871 164.773 423.14 170.977 403.102C176.872 384.066 182.961 364.568 182.113 342.41C180.687 305.649 164.233 271.161 148.318 237.79C129.938 199.255 110.94 159.449 115.372 116.175C119.032 80.4926 139.263 55.4068 158.838 31.1301C174.869 11.2464 191.477 -9.29236 198.875 -35.6498C213.249 -86.7849 177.181 -143.546 142.346 -198.727C123.734 -228.129 106.123 -255.874 97.1448 -281.537L100.767 -282.809C109.63 -257.569 127.086 -229.978 145.582 -200.769C180.918 -145.01 217.41 -87.3629 202.575 -34.6094C194.868 -7.63538 178.105 13.3658 161.844 33.5578C141.729 58.4895 122.732 82.034 119.186 116.561C114.871 158.949 132.828 196.365 151.825 236.017C167.894 269.735 184.541 304.57 185.966 342.141C186.814 364.799 180.649 384.798 174.637 404.104C168.279 424.758 162.229 444.218 163.886 466.915L160.033 467.3Z" fill="#F8F6F6"/>
<path d="M152.326 477.127C150.592 456.364 150.257 435.508 151.324 414.701C152.65 391.347 151.98 367.923 149.321 344.684C145.12 315.398 132.751 284.147 119.649 251.046C100.382 202.685 80.6909 152.706 87.6656 107.891C93.3302 71.3215 118.801 50.3588 143.425 30.0898C161.228 15.4467 179.647 0.302734 190.398 -20.6599C216.447 -71.3711 165.89 -142.005 121.499 -204.122C99.5727 -234.487 79.111 -263.041 69.8628 -286.239L73.4465 -287.626C82.4635 -264.891 102.848 -236.452 124.427 -206.357C169.667 -143.238 220.956 -71.4868 193.789 -18.8874C182.653 2.76889 163.964 18.1441 145.852 33.0569C120.651 53.7883 96.8753 73.3638 91.4035 108.469C84.6214 152.282 104.235 201.76 123.194 249.62C136.373 282.952 148.858 314.396 153.097 344.145C155.785 367.601 156.468 391.244 155.139 414.816C154.071 435.444 154.406 456.12 156.141 476.703L152.326 477.127Z" fill="#F8F6F6"/>
<path d="M142.423 484.911C140.149 460.326 135.333 435.394 130.67 411.31C127.279 393.777 123.734 375.666 121.229 357.747C117.375 329.348 105.815 296.979 94.2549 262.683C74.9877 207.078 54.8728 149.585 64.2367 102.766C71.9435 64.6938 100.536 46.6597 128.281 29.2036C148.319 16.6029 169.012 3.61685 181.728 -17.0375C206.852 -57.4215 180.533 -91.9868 155.101 -125.435C151.517 -130.174 147.933 -134.837 144.581 -139.5C134.523 -153.333 124.851 -165.857 115.487 -178.034C88.2821 -213.177 64.7761 -243.542 44.5071 -290.207L48.0523 -291.71C68.1286 -245.469 91.4804 -215.335 118.532 -180.385C127.895 -168.246 137.606 -155.684 147.702 -141.85C151.055 -137.265 154.6 -132.602 158.183 -127.901C183.192 -95.031 211.515 -57.7683 185.157 -15.1108C171.979 6.12158 150.9 19.3774 130.516 32.1708C102.193 49.9737 75.4502 66.8517 68.1672 103.267C59.0345 149.045 78.8412 206.038 98.0313 261.257C110.015 295.746 121.152 328.269 125.352 357.054C127.857 374.857 131.363 392.968 134.754 410.424C139.93 434.871 143.865 459.565 146.546 484.41L142.423 484.911Z" fill="#F8F6F6"/>
<path d="M129.475 490.151C128.28 467.3 120.651 446.607 112.558 424.643C105.815 406.301 98.8017 387.303 95.873 366.841C92.0196 339.328 81.6539 306.766 70.7101 272.278C51.443 211.009 31.251 147.697 41.925 99.2975C50.7108 59.6072 81.6538 44.0009 111.556 28.8954C133.328 17.9131 155.832 6.58398 169.897 -13.9933C197.18 -54.069 167.547 -90.6381 141.382 -122.853C137.143 -128.055 133.174 -132.987 129.436 -137.881C118.184 -152.601 107.356 -165.78 96.9134 -178.535C67.7429 -214.025 42.58 -244.66 20.8467 -292.597L24.3533 -294.176C45.8555 -246.741 70.9028 -216.26 99.8806 -180.963C110.362 -168.208 121.229 -154.99 132.481 -140.232C136.334 -135.376 140.187 -130.483 144.349 -125.281C171.323 -91.9868 202.151 -54.2617 173.057 -11.8354C158.453 9.58966 135.525 21.15 113.329 32.325C82.8484 47.7387 54.0633 62.189 45.7013 100.145C35.22 147.504 55.1423 210.315 74.3709 271.084C85.3532 305.764 95.7189 338.48 99.6879 366.302C102.539 386.378 109.476 405.183 116.181 423.371C123.887 444.565 132.095 466.491 133.328 489.92L129.475 490.151Z" fill="#F8F6F6"/>
<path d="M116.643 492.232H112.79C112.79 476.548 107.665 467.377 102.116 457.551C99.1928 452.598 96.6176 447.448 94.4091 442.137C84.3516 416.782 78.8027 402.832 73.9859 371.273C69.9013 344.607 60.3833 312.739 50.2873 278.983C31.8679 217.328 11.0208 147.966 21.6178 97.8716C30.4807 56.3315 62.6183 42.3436 93.7155 28.8181C116.489 18.9147 139.957 8.70312 154.754 -12.2981C182.845 -52.2967 151.941 -89.3668 124.659 -122.237C120.381 -127.4 116.297 -132.255 112.559 -137.072C100.497 -152.486 88.8601 -166.166 77.6466 -179.46C47.7055 -214.603 21.8875 -244.968 0 -293.791L3.50661 -295.371C25.1629 -247.049 50.8268 -216.877 80.5753 -181.965C91.8273 -168.709 103.465 -154.991 115.603 -139.577C119.456 -134.837 123.31 -129.982 127.626 -124.857C154.368 -92.6807 187.662 -52.6435 157.914 -10.2558C142.5 11.6317 118.532 22.1131 95.2569 32.132C63.6587 45.8888 33.8331 58.8363 25.3941 98.4496C14.9898 147.35 35.7213 216.519 53.9866 277.557C64.1211 311.429 73.6776 343.412 77.8008 370.348C82.5791 401.484 87.7041 414.47 97.9928 440.365C100.194 445.567 102.77 450.602 105.7 455.432C111.287 465.874 116.759 475.508 116.643 492.232Z" fill="#F8F6F6"/>
</svg>
